<svg width="24" height="24" viewBox="0 0 24 24" fill="none" xmlns="http://www.w3.org/2000/svg">
<path d="M12.0985 2.00002C14.792 2.00485 17.2375 3.06626 19.0431 4.79173L20.4947 3.34009C21.1093 2.72557 22.16 3.1608 22.16 4.02987V9.47872C22.16 10.0175 21.7233 10.4542 21.1845 10.4542H15.7357C14.8666 10.4542 14.4314 9.40349 15.0459 8.78893L16.7428 7.092C15.4883 5.91739 13.8651 5.26675 12.1406 5.25187C8.38503 5.21944 5.21938 8.25868 5.25186 12.1389C5.28267 15.8197 8.26683 18.9084 12.08 18.9084C13.7516 18.9084 15.3315 18.3118 16.5765 17.2193C16.7693 17.0502 17.0605 17.0605 17.2418 17.2418L18.8539 18.8539C19.0519 19.0519 19.0421 19.3748 18.8343 19.5625C17.0469 21.1769 14.6783 22.16 12.08 22.16C6.51299 22.16 2.00004 17.6471 2 12.0801C1.99996 6.51947 6.53787 1.99006 12.0985 2.00002Z" fill="white"/>
</svg>
